<svg xmlns="http://www.w3.org/2000/svg" width="800" height="440" viewBox="0 0 800 440">
  <rect width="800" height="440" fill="#0b0e14" rx="10"/>
  <rect x="0" y="0" width="800" height="34" fill="#1a212e" rx="10"/>
  <rect x="0" y="17" width="800" height="17" fill="#1a212e"/>
  <circle cx="16" cy="17" r="5.5" fill="#e56767"/>
  <circle cx="32" cy="17" r="5.5" fill="#f5b041"/>
  <circle cx="48" cy="17" r="5.5" fill="#6bcb7c"/>
  <text x="400" y="22" font-family="monospace" font-size="11" fill="#7b869c" text-anchor="middle">QuickMath CLI</text>

  <text x="36" y="74" font-family="monospace" font-size="18" fill="#76a9fa">QuickMath &mdash; Fast Math Challenge</text>
  <text x="36" y="104" font-family="monospace" font-size="13" fill="#7b869c">Question 7/20 &nbsp;Score: 12 &nbsp;Streak: 5 &nbsp;Lives: &hearts;&hearts;&hearts; &nbsp;Accuracy: 71%</text>

  <line x1="36" y1="120" x2="764" y2="120" stroke="#262f3f" stroke-dasharray="3,3"/>

  <text x="36" y="150" font-family="monospace" font-size="14" fill="#dfe3ed"> 42</text>
  <text x="88" y="150" font-family="monospace" font-size="14" fill="#6bcb7c">&times;</text>
  <text x="110" y="150" font-family="monospace" font-size="14" fill="#dfe3ed"> 3</text>
  <text x="134" y="150" font-family="monospace" font-size="14" fill="#7b869c">=</text>

  <rect x="154" y="137" width="38" height="22" rx="4" fill="#1a212e" stroke="#262f3f"/>
  <text x="168" y="153" font-family="monospace" font-size="14" fill="#7b869c" text-anchor="middle">?</text>

  <line x1="36" y1="172" x2="764" y2="172" stroke="#262f3f" stroke-dasharray="3,3"/>

  <text x="36" y="200" font-family="monospace" font-size="13" fill="#7b869c">&gt;&gt;</text>
  <text x="58" y="200" font-family="monospace" font-size="13" fill="#dfe3ed">1</text>
  <rect x="66" y="188" width="2" height="15" fill="#dfe3ed">
    <animate attributeName="opacity" values="1;0;1" dur="1.2s" repeatCount="indefinite"/>
  </rect>

  <text x="36" y="228" font-family="monospace" font-size="13" fill="#6bcb7c"> 126 &checkmark; Correct!</text>

  <line x1="36" y1="248" x2="764" y2="248" stroke="#262f3f" stroke-dasharray="3,3"/>

  <text x="36" y="270" font-family="monospace" font-size="13" fill="#dfe3ed"> 95 &minus; 38 =</text>
  <rect x="172" y="257" width="38" height="22" rx="4" fill="#1a212e" stroke="#262f3f"/>
  <text x="186" y="273" font-family="monospace" font-size="13" fill="#7b869c" text-anchor="middle">?</text>

  <line x1="36" y1="296" x2="764" y2="296" stroke="#262f3f" stroke-dasharray="3,3"/>

  <text x="36" y="320" font-family="monospace" font-size="12" fill="#7b869c">[Mode: Standard] [Operations: +, -, &times;] [Difficulty: Medium 1-50]</text>

  <rect x="0" y="418" width="800" height="22" fill="#11161f"/>
  <text x="400" y="433" font-family="monospace" font-size="10" fill="#7b869c" text-anchor="middle">?/20  Score: 12  Streak: 5  &hearts;&hearts;&hearts;  Accuracy: 71%</text>
</svg>
