<svg xmlns="http://www.w3.org/2000/svg" width="800" height="480" viewBox="0 0 800 480">
  <rect width="800" height="480" fill="#0d1117" rx="8"/>
  <rect x="0" y="0" width="800" height="36" fill="#21262d" rx="8"/>
  <rect x="0" y="20" width="800" height="16" fill="#21262d"/>
  <circle cx="16" cy="18" r="6" fill="#f85149"/>
  <circle cx="34" cy="18" r="6" fill="#d29922"/>
  <circle cx="52" cy="18" r="6" fill="#3fb950"/>
  <text x="400" y="26" font-family="monospace" font-size="12" fill="#8b949e" text-anchor="middle">QuickMath CLI</text>
  <text x="40" y="80" font-family="monospace" font-size="22" fill="#58a6ff" font-weight="bold">  ___        _        __  __       _   _       _ _</text>
  <text x="40" y="104" font-family="monospace" font-size="22" fill="#58a6ff"> / _ \ _   _(_) ___  |  \/  | __ _| |_| |__   (_) |_</text>
  <text x="40" y="128" font-family="monospace" font-size="22" fill="#58a6ff">| | | | | | | |/ __| | |\/| |/ _` | __| '_ \  | | __|</text>
  <text x="40" y="152" font-family="monospace" font-size="22" fill="#58a6ff">| |_| | |_| | | (__  | |  | | (_| | |_| | | | | | |_</text>
  <text x="40" y="176" font-family="monospace" font-size="22" fill="#58a6ff"> \__\_\\__,_|_|\___| |_|  |_|\__,_|\__|_| |_| |_|\__|</text>
  <line x1="40" y1="200" x2="760" y2="200" stroke="#30363d" stroke-dasharray="4,4"/>
  <text x="40" y="228" font-family="monospace" font-size="14" fill="#8b949e">Fast Math Challenge</text>
  <text x="40" y="260" font-family="monospace" font-size="14" fill="#8b949e">Select Game Mode:</text>
  <polygon points="64,292 58,282 70,282" fill="#58a6ff"/>
  <text x="78" y="292" font-family="monospace" font-size="14" fill="#58a6ff" font-weight="bold">Standard (20 questions)</text>
  <text x="60" y="316" font-family="monospace" font-size="14" fill="#c9d1d9">  Infinite (endless)</text>
  <text x="60" y="340" font-family="monospace" font-size="14" fill="#c9d1d9">  Timed (60s)</text>
  <line x1="40" y1="370" x2="760" y2="370" stroke="#30363d"/>
  <text x="60" y="400" font-family="monospace" font-size="16" fill="#c9d1d9">
    <tspan fill="#58a6ff">15</tspan>
    <tspan fill="#3fb950"> +</tspan>
    <tspan fill="#58a6ff"> 8</tspan>
    <tspan fill="#58a6ff"> =</tspan>
    <tspan fill="#58a6ff"> ?</tspan>
  </text>
  <polygon points="60,430 64,420 56,420" fill="#8b949e"/>
  <text x="72" y="430" font-family="monospace" font-size="14" fill="#c9d1d9">_</text>
  <rect x="0" y="460" width="800" height="20" fill="#161b22"/>
  <text x="400" y="474" font-family="monospace" font-size="11" fill="#8b949e" text-anchor="middle">?/20  Score: 0  Streak: 0  ♥♥♥  Accuracy: 0%</text>
</svg>
